PathFileType	4	(X/Y/Z)	C:/Users/rsk02/Documents/GitHub/TechForParalysis/Code/Model/04122019 - Marker Volunteer01/Rosti Data/New Session 109.trc	
DataRate	CameraRate	NumFrames	NumMarkers	Units	OrigDataRate	OrigDataStartFrame	OrigNumFrames	
100.00	100.00	13	14	mm	100.00	1	1141	
Frame#	Time	C7			PX			T8			IJ			SC			AC			AI			TS			AA			GH			LE			ME			US			RS			
		X1	Y1	Z1	X2	Y2	Z2	X3	Y3	Z3	X4	Y4	Z4	X5	Y5	Z5	X6	Y6	Z6	X7	Y7	Z7	X8	Y8	Z8	X9	Y9	Z9	X10	Y10	Z10	X11	Y11	Z11	X12	Y12	Z12	X13	Y13	Z13	X14	Y14	Z14	

1	0.000	698.83685	-7.28981	1538.53516	469.61859	-26.18684	1288.23975	771.89905	-6.94690	1325.23438	534.16400	-27.07603	1431.69788	538.46967	-2.53308	1440.61792	614.18475	139.40967	1482.15027	742.10126	70.20264	1463.27124	775.20160	72.20498	1343.41113	690.45721	186.49171	1445.76611	649.56531	199.31400	1454.86377	616.68115	266.16943	1162.25269	673.04297	195.11813	1128.87158	550.94513	291.83292	894.41571	513.01349	220.25137	895.65546 
2	0.010	698.69800	-7.13543	1538.52112	469.56396	-25.99831	1288.15967	771.83582	-6.80429	1325.25183	534.12085	-27.09628	1431.64172	538.36578	-2.42964	1440.58057	614.03058	139.55176	1482.12122	741.98584	70.34485	1463.28699	775.13013	72.36076	1343.48303	690.32190	186.62222	1445.74341	649.42108	199.44449	1454.85046	616.60699	266.24228	1162.17712	672.97595	195.20369	1128.82068	550.93121	291.85678	894.31439	513.08350	220.24243	895.58759 
3	0.020	698.53845	-6.97549	1538.47852	469.51007	-25.83111	1288.09033	771.77557	-6.66647	1325.26953	534.03339	-27.06314	1431.54651	538.25708	-2.28889	1440.51270	613.89093	139.68361	1482.07935	741.87030	70.49695	1463.28589	775.06628	72.51614	1343.53040	690.18872	186.75388	1445.69788	649.27460	199.55836	1454.80994	616.50977	266.40555	1162.09619	672.90967	195.28796	1128.76892	550.92145	291.88116	894.21442	513.12787	220.24522	895.50739 
4	0.030	698.37085	-6.81549	1538.42566	469.45648	-25.68519	1288.03210	771.71741	-6.53482	1325.28687	533.91107	-26.96482	1431.43506	538.16602	-2.14964	1440.43860	613.77094	139.80321	1482.02893	741.74799	70.65568	1463.27161	775.00336	72.66559	1343.55554	690.05841	186.86946	1445.63867	649.14618	199.67953	1454.76355	616.40125	266.62192	1162.01709	672.84528	195.36713	1128.71851	550.91846	291.90881	894.12164	513.16913	220.24933	895.42017 
5	0.040	698.21985	-6.66679	1538.39417	469.40219	-25.55985	1287.98499	771.65924	-6.41167	1325.30237	533.77545	-26.80752	1431.33984	538.09204	-2.02822	1440.37720	613.67102	139.91368	1481.98242	741.62012	70.81087	1463.25134	774.93115	72.80332	1343.56274	689.93457	186.95845	1445.58057	649.06165	199.83223	1454.73547	616.30560	266.81598	1161.94995	672.78455	195.43553	1128.67322	550.92542	291.93793	894.04242	513.20209	220.25793	895.33844 
6	0.050	698.10150	-6.53753	1538.40173	469.34576	-25.45371	1287.94775	771.59845	-6.29771	1325.31494	533.64856	-26.62856	1431.27600	538.02039	-1.91333	1440.33655	613.58771	140.01991	1481.95276	741.49976	70.95357	1463.23633	774.85724	72.92583	1343.56091	689.82318	187.04909	1445.53821	649.02649	200.00763	1454.73401	616.23407	266.94229	1161.89807	672.72864	195.49080	1128.63477	550.94086	291.96130	893.97754	513.21167	220.27831	895.27319 
7	0.060	698.01428	-6.42483	1538.44409	469.28549	-25.36486	1287.91760	771.53296	-6.19198	1325.32410	533.53967	-26.47064	1431.23572	537.94208	-1.80403	1440.31897	613.51208	140.12619	1481.93579	741.39264	71.07972	1463.22791	774.82245	73.03685	1343.56384	689.72455	187.17712	1445.51245	649.00708	200.15994	1454.73706	616.17981	267.00900	1161.85315	672.67780	195.53543	1128.60229	550.95819	291.97574	893.92120	513.18927	220.31448	895.22388 
8	0.070	697.93988	-6.31654	1538.49829	469.22015	-25.29059	1287.89111	771.46155	-6.09321	1325.32971	533.44586	-26.35657	1431.20300	537.85773	-1.70344	1440.31189	613.43488	140.23796	1481.91589	741.28845	71.19292	1463.21631	774.85516	73.14262	1343.58118	689.63007	187.31960	1445.48596	648.94885	200.25568	1454.71228	616.13348	267.04974	1161.80273	672.63196	195.57359	1128.57288	550.97107	291.98398	893.86377	513.13690	220.36488	895.17773 
9	0.080	697.85345	-6.20027	1538.53442	469.14908	-25.22758	1287.86536	771.38287	-5.99943	1325.33264	533.36108	-26.28087	1431.16858	537.76819	-1.60747	1440.29480	613.34839	140.35210	1481.87988	741.17657	71.29961	1463.19629	774.92810	73.24309	1343.60767	689.53021	187.44574	1445.44666	648.85504	200.31938	1454.66077	616.09271	267.09283	1161.74072	672.58917	195.60732	1128.54260	550.97565	291.98587	893.79224	513.07660	220.41656	895.11981 
10	0.090	697.74573	-6.07322	1538.54163	469.07266	-25.17252	1287.83887	771.29651	-5.90836	1325.33374	533.28412	-26.22408	1431.13794	537.66931	-1.50769	1440.25317	613.24628	140.45956	1481.82581	741.05701	71.40380	1463.17151	774.97571	73.33342	1343.62708	689.42316	187.54349	1445.39209	648.76923	200.39641	1454.60303	616.06335	267.15189	1161.67126	672.54633	195.63649	1128.50818	550.97144	291.97852	893.69940	513.04053	220.45300	895.04480 
11	0.100	697.62421	-5.94136	1538.52966	468.99191	-25.12296	1287.81152	771.20319	-5.81733	1325.33484	533.21887	-26.17474	1431.12659	537.56018	-1.40914	1440.19006	613.13226	140.56166	1481.76367	740.93372	71.50636	1463.14624	774.95740	73.41225	1343.62964	689.31488	187.61317	1445.33057	648.68292	200.47597	1454.53625	616.05304	267.22849	1161.60632	672.50116	195.66136	1128.46863	550.96436	291.96307	893.59454	513.03455	220.47295	894.95996 
12	0.110	697.49915	-5.81385	1538.51648	468.90829	-25.07746	1287.78430	771.10303	-5.72279	1325.33862	533.16656	-26.13608	1431.14600	537.44635	-1.32340	1440.12646	613.01776	140.66270	1481.71069	740.80640	71.60708	1463.12500	774.87024	73.48196	1343.62024	689.21063	187.66597	1445.27478	648.57532	200.54057	1454.46436	616.06097	267.30685	1161.55615	672.45325	195.68347	1128.42590	550.96399	291.94604	893.49579	513.04321	220.48482	894.87726 
13	0.120	697.37836	-5.69792	1538.51648	468.82309	-25.03510	1287.75732	770.99463	-5.62202	1325.34705	533.12238	-26.11608	1431.18689	537.33582	-1.25788	1440.08777	612.90668	140.75708	1481.67590	740.67590	71.70260	1463.11487	774.72363	73.54549	1343.60779	689.10767	187.72438	1445.23267	648.46375	200.60896	1454.41333	616.07050	267.35660	1161.51660	672.40216	195.70441	1128.38245	550.97577	291.93109	893.41223	513.05042	220.49475	894.80493 
